<!DOCTYPE svg PUBLIC "-//W3C//DTD SVG 1.1//EN" "http://www.w3.org/Graphics/SVG/1.1/DTD/svg11.dtd">
<!-- Uploaded to: SVG Repo, www.svgrepo.com, Transformed by: SVG Repo Mixer Tools -->
<svg version="1.1" id="_x32_" xmlns="http://www.w3.org/2000/svg" xmlns:xlink="http://www.w3.org/1999/xlink" viewBox="0 0 512 512" xml:space="preserve" width="64px" height="64px" fill="#000000">
<g id="SVGRepo_bgCarrier" stroke-width="0"/>
<g id="SVGRepo_tracerCarrier" stroke-linecap="round" stroke-linejoin="round"/>
<g id="SVGRepo_iconCarrier"> <style type="text/css"> .st0{fill:#000000;} </style> <g> <path class="st0" d="M398.42,32.464h-59.182C338.031,14.358,323.116,0,304.692,0h-97.377c-18.423,0-33.339,14.358-34.546,32.464 h-59.197c-29.372,0-53.262,23.89-53.262,53.262V461.46c0,13.762,5.716,27.102,15.67,36.588c9.449,8.99,21.823,13.944,34.854,13.952 c0.815,0,1.63-0.022,2.444-0.06l260.023-12.586c10.444-0.09,20.565-2.172,30.089-6.206c14.124-5.98,26.152-15.882,34.772-28.626 c8.846-13.092,13.529-28.384,13.529-44.251V85.726C451.69,56.354,427.792,32.464,398.42,32.464z M410.87,420.263 c0,5.188-1.018,10.196-3.001,14.909c-2.896,6.855-7.7,12.676-13.898,16.862c-6.304,4.26-13.703,6.515-21.371,6.523 c-4.872-0.008-9.683-1.191-14.276-3.522c-7.714-3.914-14.388-10.866-19.29-20.074c-5.867-11.04-8.974-25.059-8.982-40.556v-8.024 c0-5.105-2.541-9.826-6.809-12.646c-2.473-1.621-5.347-2.481-8.31-2.481c-2.074,0-4.095,0.422-5.98,1.237l-202.319,87.174 c-0.505,0.219-1.033,0.324-1.576,0.324c-0.769,0-1.516-0.226-2.157-0.648c-1.109-0.732-1.772-1.962-1.772-3.288V88.117 c0-8.182,6.644-14.834,14.826-14.834h60.284c5.678,11.485,17.397,19.449,31.076,19.449h97.377c13.68,0,25.399-7.964,31.077-19.449 h60.261c8.189,0,14.84,6.651,14.84,14.834V420.263z"/> <rect x="154.136" y="137.428" class="st0" width="203.721" height="26.906"/> <rect x="154.136" y="220.078" class="st0" width="203.721" height="26.906"/> <rect x="154.136" y="302.712" class="st0" width="203.721" height="26.907"/> </g> </g>
</svg>