<!DOCTYPE svg PUBLIC "-//W3C//DTD SVG 1.1//EN" "http://www.w3.org/Graphics/SVG/1.1/DTD/svg11.dtd">
<!-- Uploaded to: SVG Repo, www.svgrepo.com, Transformed by: SVG Repo Mixer Tools -->
<svg fill="#000000" height="64px" width="64px" version="1.1" id="Layer_1" xmlns="http://www.w3.org/2000/svg" xmlns:xlink="http://www.w3.org/1999/xlink" viewBox="0 0 512 512" xml:space="preserve">
<g id="SVGRepo_bgCarrier" stroke-width="0"/>
<g id="SVGRepo_tracerCarrier" stroke-linecap="round" stroke-linejoin="round"/>
<g id="SVGRepo_iconCarrier"> <g> <g> <path d="M99.534,96.697l12.126,389.173C112.122,500.703,124.107,512,138.948,512h234.106c14.839,0,26.826-11.297,27.287-26.131 l12.126-389.172H99.534z M224.985,336.879c-0.485,6.515-5.921,11.478-12.35,11.478c-0.31,0-0.62-0.011-0.932-0.035l-39.996-2.975 c-5.601-0.415-10.815-2.891-14.681-6.97c-6.595-6.957-8.063-17.353-3.651-25.867l16.968-32.733l-1.871,0.832 c-6.254,2.781-13.583-0.032-16.365-6.289c-2.783-6.256,0.032-13.582,6.289-16.365l34.297-15.256 c3.439-1.531,7.387-1.414,10.733,0.315c3.345,1.731,5.721,4.886,6.46,8.578l7.368,36.806c1.344,6.713-3.009,13.245-9.722,14.59 c-0.821,0.164-1.64,0.243-2.447,0.243c-5.787,0-10.963-4.074-12.143-9.966l-0.464-2.318l-15.513,29.925l36.575,2.72 C220.369,324.105,225.493,330.05,224.985,336.879z M222.343,216.834c-5.571-3.981-6.859-11.724-2.879-17.294l23.318-32.632 c3.265-4.57,8.087-7.738,13.579-8.925c9.375-2.021,19.02,2.122,24.002,10.316l19.096,31.401l0.248-1.93 c0.872-6.792,7.092-11.593,13.874-10.719c6.791,0.872,11.59,7.084,10.719,13.874l-4.779,37.231 c-0.48,3.735-2.629,7.049-5.845,9.009c-1.967,1.199-4.203,1.81-6.451,1.81c-1.427,0-2.86-0.247-4.234-0.746l-35.278-12.821 c-6.435-2.338-9.756-9.452-7.417-15.886c2.338-6.435,9.457-9.755,15.886-7.417l2.317,0.842l-17.538-28.832l-21.323,29.841 C235.656,219.526,227.913,220.813,222.343,216.834z M359.925,329.587c-3.123,9.067-11.663,15.173-21.252,15.194l-36.866,0.083 l1.602,1.273c5.359,4.262,6.249,12.06,1.989,17.419c-2.447,3.078-6.062,4.682-9.711,4.682c-2.705,0-5.426-0.88-7.707-2.694 l-29.38-23.362c-2.947-2.343-4.67-5.898-4.681-9.665c-0.011-3.765,1.688-7.332,4.62-9.693l29.234-23.547 c5.332-4.296,13.137-3.455,17.432,1.878c4.296,5.332,3.455,13.136-1.878,17.432l-1.842,1.484l33.708-0.076l-14.492-33.692 c-2.706-6.29,0.2-13.582,6.489-16.287c6.29-2.708,13.582,0.2,16.287,6.489l15.848,36.843 C361.539,318.506,361.755,324.275,359.925,329.587z"/> </g> </g> <g> <g> <path d="M407.667,23.555h-87.859c0.415-1.24,0.657-3.221,0.657-4.896C320.465,8.389,312.139,0,301.869,0h-91.739 c-10.27,0-18.596,8.389-18.596,18.659c0,1.675,0.242,3.656,0.657,4.896h-87.859c-18.022,0-33.049,14.536-33.049,32.557v15.791 h369.433V56.112C440.717,38.09,425.689,23.555,407.667,23.555z"/> </g> </g> </g>
</svg>