<!DOCTYPE svg PUBLIC "-//W3C//DTD SVG 1.1//EN" "http://www.w3.org/Graphics/SVG/1.1/DTD/svg11.dtd">
<!-- Uploaded to: SVG Repo, www.svgrepo.com, Transformed by: SVG Repo Mixer Tools -->
<svg fill="#000000" width="64px" height="64px" viewBox="0 -3.6 30.859 30.859" xmlns="http://www.w3.org/2000/svg">
<g id="SVGRepo_bgCarrier" stroke-width="0"/>
<g id="SVGRepo_tracerCarrier" stroke-linecap="round" stroke-linejoin="round"/>
<g id="SVGRepo_iconCarrier"> <path id="Path_1" data-name="Path 1" d="M141.314,136.63l1.055-.085a.568.568,0,0,0,.52-.61l-.129-1.58a.565.565,0,0,0-.609-.519l-2.354,0-2.549-5.724a2.074,2.074,0,0,0-2.032-1.116h-15a2.084,2.084,0,0,0-2.036,1.116l-2.546,5.724-2.354,0a.568.568,0,0,0-.61.519l-.127,1.58a.567.567,0,0,0,.519.61l1.055.085a10.131,10.131,0,0,0-1.833,5.852l.238,3.025a1.649,1.649,0,0,0,.9,1.355v1.6c.1,2.185.788,2.185,2.319,2.185s2.32,0,2.423-2.185v-1.417l9.551,0,9.468,0v1.415c.1,2.185.787,2.185,2.319,2.185s2.32,0,2.422-2.185v-1.6a1.734,1.734,0,0,0,.978-1.355l.242-3.025A10.131,10.131,0,0,0,141.314,136.63ZM122.257,143.5a.568.568,0,0,1-.566.567h-5.577a.567.567,0,0,1-.568-.567v-2.04a.565.565,0,0,1,.568-.567l5.577.453a.568.568,0,0,1,.566.566Zm-4.9-7.98,2.742-6.307h15.232l2.741,6.307H117.359Zm22.53,7.98a.567.567,0,0,1-.567.567h-5.577a.568.568,0,0,1-.567-.567v-1.588a.569.569,0,0,1,.567-.566l5.577-.453a.565.565,0,0,1,.567.567Z" transform="translate(-112.289 -126.994)"/> </g>
</svg>