<!DOCTYPE svg PUBLIC "-//W3C//DTD SVG 1.1//EN" "http://www.w3.org/Graphics/SVG/1.1/DTD/svg11.dtd">
<!-- Uploaded to: SVG Repo, www.svgrepo.com, Transformed by: SVG Repo Mixer Tools -->
<svg fill="#000000" width="64px" height="64px" viewBox="-6.64 0 31.887 31.887" xmlns="http://www.w3.org/2000/svg">
<g id="SVGRepo_bgCarrier" stroke-width="0"/>
<g id="SVGRepo_tracerCarrier" stroke-linecap="round" stroke-linejoin="round"/>
<g id="SVGRepo_iconCarrier"> <g id="Group_3" data-name="Group 3" transform="translate(-165.116 -163.037)"> <path id="Path_9" data-name="Path 9" d="M183.189,178.211l-3.634-2.43-2.294-4.642c-.509-1.032-.959-1.629-1.927-1.844a2.613,2.613,0,0,0-2.081.435c-.017.012-.035.022-.051.034l-5.436,4.306a1.239,1.239,0,0,0-.434.7l-1.043,5.018a1.216,1.216,0,0,0,.945,1.435,1.165,1.165,0,0,0,.247.026,1.216,1.216,0,0,0,1.189-.967l.952-4.586,1.941-1.537-1.254,5.664-1.491,6.719-3.455,5.746a1.736,1.736,0,1,0,2.975,1.789l3.6-5.988a1.733,1.733,0,0,0,.206-.518l1.015-4.58,3.848,4.444,1.2,6.083a1.738,1.738,0,0,0,1.7,1.4,1.88,1.88,0,0,0,.339-.033,1.735,1.735,0,0,0,1.365-2.039l-1.288-6.537a1.709,1.709,0,0,0-.391-.8l-4.421-5.108,1.128-5.039.878,1.779a1.217,1.217,0,0,0,.416.475l3.906,2.607a1.214,1.214,0,1,0,1.347-2.019Z"/> <path id="Path_10" data-name="Path 10" d="M176.122,168.244a2.6,2.6,0,1,0-2.6-2.6A2.6,2.6,0,0,0,176.122,168.244Z"/> </g> </g>
</svg>